<?xml version="1.0" encoding="UTF-8"?>
<svg version="1.1" xmlns="http://www.w3.org/2000/svg" width="2000" height="2000">
<path d="M0 0 C2.93066406 1.43603516 2.93066406 1.43603516 6.015625 3.2890625 C6.57982147 3.6240123 7.14401794 3.9589621 7.72531128 4.30406189 C9.57203025 5.40264898 11.41079999 6.5138797 13.25 7.625 C14.5499658 8.40075298 15.85059481 9.1753956 17.15185547 9.94897461 C19.14969739 11.13669997 21.14717434 12.32498281 23.14266968 13.51664734 C29.4298966 17.26962353 35.77180476 20.92225118 42.125 24.5625 C50.9187342 29.61551599 59.66088228 34.74848429 68.375 39.9375 C78.1104913 45.73364101 87.90889926 51.40327479 97.75970459 56.99972534 C106.39550213 61.90842351 114.96686936 66.91402809 123.5 72 C132.6775781 77.46894535 141.90249783 82.84149347 151.1875 88.125 C162.8617401 94.76846103 174.48162951 101.50001247 186.07324219 108.28662109 C191.00508069 111.17381184 195.9396018 114.05639926 200.875 116.9375 C202.35601196 117.8022998 202.35601196 117.8022998 203.86694336 118.68457031 C211.16640213 122.94224279 218.48716354 127.16205109 225.8125 131.375 C234.70896889 136.49286114 243.5565281 141.68647464 252.375 146.9375 C262.1104988 152.73362916 271.90889892 158.40327459 281.75970459 163.99972534 C290.39550213 168.90842351 298.96686936 173.91402809 307.5 179 C316.6775781 184.46894535 325.90249783 189.84149347 335.1875 195.125 C346.85891001 201.76685051 358.47579633 208.49701769 370.06445312 215.28222656 C375.03978549 218.19360701 380.02014528 221.09636412 385 224 C390.97780303 227.48616149 396.95505996 230.97324226 402.9296875 234.46484375 C413.26983528 240.50566693 423.62347462 246.52185016 434 252.5 C447.35009178 260.19128838 460.65733042 267.9548291 473.95898438 275.72949219 C485.43357224 282.43497811 496.92113085 289.11647782 508.4375 295.75 C516.1822627 300.21133669 523.91377277 304.69234244 531.61132812 309.23461914 C545.96122495 317.70168098 560.36934155 326.0681944 574.8125 334.375 C583.7089614 339.49287469 592.55652781 344.68647447 601.375 349.9375 C611.1058409 355.73085603 620.89939654 361.39809249 630.74560547 366.9916687 C640.76469554 372.68635921 650.69903854 378.51386767 660.59375 384.421875 C668.34630664 389.04620703 676.15805497 393.51888855 684 398 C684 662.66 684 927.32 684 1200 C675.42 1204.95 666.84 1209.9 658 1215 C649.99697346 1219.66155669 641.99600074 1224.32642993 634 1229 C630.04214526 1231.31332038 626.08389337 1233.62595749 622.125 1235.9375 C621.13781982 1236.51395264 620.15063965 1237.09040527 619.13354492 1237.68432617 C611.83388608 1241.9420168 604.51295842 1246.16189825 597.1875 1250.375 C588.25129826 1255.51662348 579.36094387 1260.72979462 570.5 1266 C558.47415607 1273.15127388 546.37471619 1280.16744384 534.24267578 1287.13671875 C528.78379389 1290.2734592 523.3290584 1293.41738188 517.875 1296.5625 C516.25839478 1297.49461304 516.25839478 1297.49461304 514.60913086 1298.44555664 C506.40115865 1303.18218523 498.21315919 1307.9523795 490.03198242 1312.73510742 C482.76766008 1316.97852821 475.4806226 1321.18131772 468.1875 1325.375 C459.2909868 1330.49278664 450.44353161 1335.68657582 441.625 1340.9375 C431.23961775 1347.11909609 420.78238963 1353.15853218 410.27880859 1359.13598633 C399.7861767 1365.10863795 389.3543732 1371.18195851 378.93554688 1377.28222656 C373.96021451 1380.19360701 368.97985472 1383.09636412 364 1386 C358.02219697 1389.48616149 352.04494004 1392.97324226 346.0703125 1396.46484375 C334.63921493 1403.14301128 323.18711888 1409.78321653 311.71582031 1416.39208984 C300.4520275 1422.88499878 289.22447236 1429.43942556 278 1436 C274.04214526 1438.31332038 270.08389337 1440.62595749 266.125 1442.9375 C265.13781982 1443.51395264 264.15063965 1444.09040527 263.13354492 1444.68432617 C255.83388651 1448.94201655 248.51299394 1453.16196052 241.1875 1457.375 C232.29103111 1462.49286114 223.4434719 1467.68647464 214.625 1472.9375 C204.8895012 1478.73362916 195.09110108 1484.40327459 185.24029541 1489.99972534 C176.60449787 1494.90842351 168.03313064 1499.91402809 159.5 1505 C150.3224219 1510.46894535 141.09750217 1515.84149347 131.8125 1521.125 C120.14108999 1527.76685051 108.52420367 1534.49701769 96.93554688 1541.28222656 C91.96021451 1544.19360701 86.97985472 1547.09636412 82 1550 C76.02219697 1553.48616149 70.04494004 1556.97324226 64.0703125 1560.46484375 C55.8850409 1565.24665223 47.69865209 1570.02593987 39.484375 1574.7578125 C38.39334473 1575.38631104 37.30231445 1576.01480957 36.17822266 1576.66235352 C33.99161867 1577.92017604 31.80380853 1579.17590431 29.61474609 1580.42944336 C24.25679104 1583.50587608 18.9395596 1586.6293921 13.6796875 1589.87109375 C12.67953613 1590.48202881 11.67938477 1591.09296387 10.64892578 1591.72241211 C8.7660902 1592.8769452 6.89147193 1594.04502755 5.02685547 1595.22875977 C-1.09984217 1598.96984583 -1.09984217 1598.96984583 -5.1484375 1599.10546875 C-8.79639814 1597.69125935 -12.06287078 1595.86796021 -15.375 1593.8125 C-16.89401375 1592.89497604 -18.41357683 1591.9783611 -19.93359375 1591.0625 C-20.74940918 1590.5675 -21.56522461 1590.0725 -22.40576172 1589.5625 C-27.05393287 1586.76292393 -31.74773839 1584.04162437 -36.4375 1581.3125 C-37.44796387 1580.72315674 -38.45842773 1580.13381348 -39.49951172 1579.52661133 C-48.07927271 1574.5254414 -56.68147763 1569.56359214 -65.28686523 1564.60668945 C-73.5308425 1559.85520431 -81.75307177 1555.06743496 -89.9675293 1550.26513672 C-97.23205189 1546.02169905 -104.51921992 1541.81877283 -111.8125 1537.625 C-120.70901148 1532.50721435 -129.55652935 1527.31352461 -138.375 1522.0625 C-148.1104988 1516.26637084 -157.90889892 1510.59672541 -167.75970459 1505.00027466 C-177.52774539 1499.44799488 -187.20381156 1493.75279218 -196.85546875 1488 C-204.85426538 1483.24345659 -212.90882732 1478.59659407 -221 1474 C-231.35637764 1468.1165433 -241.62370163 1462.09856201 -251.85546875 1456 C-259.85426538 1451.24345659 -267.90882732 1446.59659407 -276 1442 C-286.35637764 1436.1165433 -296.62370163 1430.09856201 -306.85546875 1424 C-314.85426538 1419.24345659 -322.90882732 1414.59659407 -331 1410 C-341.35637764 1404.1165433 -351.62370163 1398.09856201 -361.85546875 1392 C-369.85426538 1387.24345659 -377.90882732 1382.59659407 -386 1378 C-395.22386814 1372.75992179 -404.38691059 1367.4316427 -413.5 1362 C-422.67758308 1356.53105168 -431.90259112 1351.15867567 -441.1875 1345.875 C-456.2047165 1337.32783406 -471.12633512 1328.62294348 -486.02734375 1319.875 C-487.85936478 1318.79963352 -489.69142274 1317.72433005 -491.52352905 1316.64910889 C-492.7579746 1315.92462574 -493.99236994 1315.20005703 -495.22671509 1314.47540283 C-503.83632019 1309.42205316 -512.46986847 1304.41262123 -521.125 1299.4375 C-529.91797888 1294.3831417 -538.66079976 1289.2514302 -547.375 1284.0625 C-557.76037404 1277.88089083 -568.21761075 1271.8414676 -578.72119141 1265.86401367 C-589.21665164 1259.88975209 -599.65147527 1253.81507116 -610.07324219 1247.71337891 C-615.00508069 1244.82618816 -619.9396018 1241.94360074 -624.875 1239.0625 C-625.86234131 1238.4859668 -626.84968262 1237.90943359 -627.86694336 1237.31542969 C-635.16640203 1233.05775727 -642.48715237 1228.83792949 -649.8125 1224.625 C-660.44346742 1218.5096487 -671.00840166 1212.28827624 -681.54614258 1206.01416016 C-682.62404053 1205.37269043 -683.70193848 1204.7312207 -684.8125 1204.0703125 C-685.76769531 1203.50070801 -686.72289062 1202.93110352 -687.70703125 1202.34423828 C-689.11358666 1201.51965416 -690.54168945 1200.72915528 -692 1200 C-692 935.34 -692 670.68 -692 398 C-666 383 -666 383 -653.0625 375.5625 C-643.07194189 369.81123108 -633.15142832 363.94798616 -623.24633789 358.05102539 C-614.63199337 352.9356969 -605.95082397 347.9489099 -597.24029541 343.00027466 C-588.60449787 338.09157649 -580.03313064 333.08597191 -571.5 328 C-562.32241731 322.53105191 -553.09741912 317.15865768 -543.8125 311.875 C-526.58236526 302.0684903 -509.47162117 292.0662136 -492.41723633 281.95751953 C-484.32294999 277.16971564 -476.17300192 272.48099132 -468.01953125 267.79492188 C-460.18243496 263.28167643 -452.3950383 258.69007732 -444.625 254.0625 C-434.23968199 247.88079891 -423.78238728 241.84146648 -413.27880859 235.86401367 C-402.7861767 229.89136205 -392.3543732 223.81804149 -381.93554688 217.71777344 C-376.96021451 214.80639299 -371.97985472 211.90363588 -367 209 C-361.02219697 205.51383851 -355.04494004 202.02675774 -349.0703125 198.53515625 C-337.63921493 191.85698872 -326.18711888 185.21678347 -314.71582031 178.60791016 C-304.44463308 172.68717951 -294.20348192 166.7156847 -283.96777344 160.73388672 C-277.97891689 157.23496773 -271.98668651 153.74182936 -265.99511719 150.24755859 C-261.019094 147.34528296 -256.04383865 144.4417092 -251.0703125 141.53515625 C-239.63921493 134.85698872 -228.18711888 128.21678347 -216.71582031 121.60791016 C-206.44463308 115.68717951 -196.20348192 109.7156847 -185.96777344 103.73388672 C-179.97891689 100.23496773 -173.98668651 96.74182936 -167.99511719 93.24755859 C-163.019094 90.34528296 -158.04383865 87.4417092 -153.0703125 84.53515625 C-141.63921493 77.85698872 -130.18711888 71.21678347 -118.71582031 64.60791016 C-108.44463308 58.68717951 -98.20348192 52.7156847 -87.96777344 46.73388672 C-81.97891689 43.23496773 -75.98668651 39.74182936 -69.99511719 36.24755859 C-65.019094 33.34528296 -60.04383865 30.4417092 -55.0703125 27.53515625 C-43.22295981 20.61390538 -31.35541528 13.72912897 -19.46337891 6.88500977 C-17.91336182 5.9925354 -17.91336182 5.9925354 -16.33203125 5.08203125 C-14.96655151 4.29662964 -14.96655151 4.29662964 -13.57348633 3.49536133 C-10.96845403 2.03532854 -10.96845403 2.03532854 -8.54174805 0.24487305 C-5.1709639 -1.40603737 -3.57358026 -1.04177212 0 0 Z M-15.96875 121.75390625 C-17.0012085 122.35323975 -18.03366699 122.95257324 -19.09741211 123.57006836 C-20.22026611 124.2275708 -21.34312012 124.88507324 -22.5 125.5625 C-23.6762584 126.24726485 -24.85277621 126.93158428 -26.02954102 127.61547852 C-28.47653433 129.03792958 -30.92239195 130.46230788 -33.36767578 131.88769531 C-36.75774351 133.86168159 -40.15668881 135.8199092 -43.55859375 137.7734375 C-55.68246718 144.73553335 -67.74077794 151.79714625 -79.75366211 158.94897461 C-88.36800663 164.0643031 -97.04917603 169.0510901 -105.75970459 173.99972534 C-114.39550213 178.90842351 -122.96686936 183.91402809 -131.5 189 C-140.6775781 194.46894535 -149.90249783 199.84149347 -159.1875 205.125 C-170.8617401 211.76846103 -182.48162951 218.50001247 -194.07324219 225.28662109 C-199.00508069 228.17381184 -203.9396018 231.05639926 -208.875 233.9375 C-209.86234131 234.5140332 -210.84968262 235.09056641 -211.86694336 235.68457031 C-219.16640213 239.94224279 -226.48716354 244.16205109 -233.8125 248.375 C-242.70896889 253.49286114 -251.5565281 258.68647464 -260.375 263.9375 C-270.10986571 269.73325224 -279.90786292 275.40205434 -289.75769043 280.99871826 C-299.56896239 286.57648056 -309.29225715 292.29162069 -318.98950195 298.06591797 C-327.76283455 303.28401464 -336.5888221 308.40508729 -345.4375 313.49414062 C-352.68057912 317.66000856 -359.90947841 321.84907823 -367.125 326.0625 C-368.10895752 326.63701904 -369.09291504 327.21153809 -370.10668945 327.8034668 C-373.07141839 329.53514521 -376.03578127 331.26744839 -379 333 C-392.40617881 340.83575666 -405.82920683 348.64037711 -419.28417969 356.39208984 C-431.56486045 363.47117441 -443.80393138 370.62122316 -456.03955078 377.77783203 C-467.35377466 384.39510843 -478.68412079 390.97907999 -490.07373047 397.46582031 C-499.74097427 402.97904235 -509.34541233 408.59916946 -518.95166016 414.21777344 C-522.96863951 416.56631975 -526.98798002 418.91080538 -531.00756836 421.25488281 C-533.00203699 422.41801097 -534.9963405 423.58142231 -536.99047852 424.74511719 C-542.03827924 427.69073098 -547.08782903 430.63327459 -552.140625 433.5703125 C-561.93643521 439.26758128 -571.71507741 444.99065846 -581.4375 450.8125 C-582.29053711 451.32248535 -583.14357422 451.8324707 -584.02246094 452.35791016 C-584.79750977 452.82374512 -585.57255859 453.28958008 -586.37109375 453.76953125 C-587.05099365 454.17792236 -587.73089355 454.58631348 -588.43139648 455.00708008 C-589.98037138 455.90728031 -589.98037138 455.90728031 -591 457 C-591.09720876 458.48792091 -591.12447345 459.98046142 -591.1241985 461.47155434 C-591.12644579 462.44565849 -591.12869308 463.41976265 -591.13100848 464.42338511 C-591.12838146 465.50850431 -591.12575445 466.5936235 -591.12304783 467.7116251 C-591.12420167 468.8574963 -591.12535552 470.0033675 -591.12654433 471.18396208 C-591.12875034 474.39300477 -591.126422 477.60200898 -591.12226619 480.81104863 C-591.11884872 484.29142986 -591.12119958 487.77180773 -591.12284368 491.25218958 C-591.12492333 497.36137493 -591.12326362 503.47055057 -591.11920547 509.5797348 C-591.11318779 518.66396787 -591.11286805 527.74819478 -591.11374746 536.83242948 C-591.11506358 552.11114343 -591.11171155 567.38985306 -591.10573006 582.66856575 C-591.09981987 597.80380334 -591.0959655 612.93903914 -591.09487724 628.07427788 C-591.0948085 629.01415225 -591.09473976 629.95402663 -591.09466894 630.92238205 C-591.09433062 635.69522354 -591.09402923 640.46806503 -591.09374207 645.24090653 C-591.09163976 679.07670258 -591.08489714 712.91249629 -591.07543945 746.74829102 C-591.06626009 779.62622058 -591.059174 812.50414949 -591.05493164 845.38208008 C-591.05480011 846.39491846 -591.05466859 847.40775684 -591.05453308 848.4512873 C-591.05321459 858.62231282 -591.05193878 868.79333835 -591.05069422 878.96436388 C-591.04815777 899.6852626 -591.04533652 920.40616128 -591.04234314 941.12705994 C-591.04220585 942.07984414 -591.04206856 943.03262834 -591.04192711 944.01428478 C-591.03272119 1007.67619083 -591.01687538 1071.33809558 -591 1135 C-588.16874543 1131.52496562 -585.82839752 1128.14147173 -583.6796875 1124.203125 C-582.76135132 1122.53165405 -582.76135132 1122.53165405 -581.82446289 1120.82641602 C-581.50655792 1120.24304474 -581.18865295 1119.65967346 -580.8611145 1119.05862427 C-579.18523308 1115.98490433 -577.49279252 1112.92033071 -575.80078125 1109.85546875 C-575.4678154 1109.25173935 -575.13484955 1108.64800995 -574.79179382 1108.02598572 C-572.28702221 1103.49401505 -569.71320514 1099.01034196 -567.0625 1094.5625 C-562.7512675 1087.31733541 -558.55235374 1080.01057992 -554.375 1072.6875 C-554.03478821 1072.09125824 -553.69457642 1071.49501648 -553.34405518 1070.88070679 C-551.5956733 1067.81622733 -549.84809629 1064.75129 -548.10107422 1061.68603516 C-544.71625941 1055.74728603 -541.32769106 1049.81068143 -537.9375 1043.875 C-537.44089874 1043.00541153 -537.44089874 1043.00541153 -536.93426514 1042.11825562 C-531.53062983 1032.65786618 -526.0922822 1023.21781093 -520.64208984 1013.78417969 C-516.09512023 1005.90943315 -511.57176309 998.02138143 -507.0625 990.125 C-506.73105988 989.54461975 -506.39961975 988.9642395 -506.05813599 988.36627197 C-503.70463724 984.24463022 -501.35219747 980.12238449 -499 976 C-496.31322789 971.2912509 -493.62598595 966.58277082 -490.9375 961.875 C-490.44021896 961.00418793 -490.44021896 961.00418793 -489.93289185 960.11578369 C-484.52970671 950.65622287 -479.09181055 941.21699455 -473.64208984 931.78417969 C-467.06211643 920.388541 -460.53808628 908.96110643 -454.01611328 897.53222656 C-452.01064186 894.01819321 -450.00361469 890.50505031 -447.99609375 886.9921875 C-447.5013279 886.12640579 -447.5013279 886.12640579 -446.99656677 885.24313354 C-445.33274641 882.33175915 -443.66874706 879.42048712 -442.00463867 876.50927734 C-438.98338747 871.22346172 -435.96326195 865.9370188 -432.94869995 860.64738464 C-431.25820925 857.68116606 -429.56684065 854.7154488 -427.875 851.75 C-427.54244202 851.1670517 -427.20988403 850.58410339 -426.86724854 849.98348999 C-422.25211953 841.89754031 -417.58378188 833.84427229 -412.875 825.8125 C-407.54853589 816.72573595 -402.37432164 807.56209299 -397.25170898 798.35913086 C-392.66431178 790.13718735 -387.94395344 781.99933286 -383.1796875 773.87890625 C-379.22105932 767.12178477 -375.3374768 760.32658338 -371.5 753.5 C-367.09489425 745.66364729 -362.61157003 737.87863713 -358.0625 730.125 C-353.27890421 721.96849187 -348.59886773 713.7620351 -344 705.5 C-338.90162887 696.34280035 -333.68692031 687.26306978 -328.38623047 678.22167969 C-323.91721265 670.5920119 -319.50638369 662.93022514 -315.125 655.25 C-314.62495453 654.3735231 -314.62495453 654.3735231 -314.11480713 653.4793396 C-312.4199651 650.5080802 -310.72592016 647.53636728 -309.03222656 644.56445312 C-306.02519137 639.28888953 -303.01122063 634.0172894 -299.99771118 628.74542236 C-298.33292064 625.83299369 -296.66837035 622.92042775 -295.00390625 620.0078125 C-294.67410263 619.43070526 -294.34429901 618.85359802 -294.00450134 618.25900269 C-291.99338547 614.73949621 -289.98342622 611.21933188 -287.97433472 607.69866943 C-280.56160337 594.70896645 -273.12388912 581.73427956 -265.64208984 568.78417969 C-261.09512023 560.90943315 -256.57176309 553.02138143 -252.0625 545.125 C-251.73105988 544.54461975 -251.39961975 543.9642395 -251.05813599 543.36627197 C-248.70463724 539.24463022 -246.35219747 535.12238449 -244 531 C-241.31322789 526.2912509 -238.62598595 521.58277082 -235.9375 516.875 C-235.60597931 516.29445862 -235.27445862 515.71391724 -234.93289185 515.11578369 C-229.52970671 505.65622287 -224.09181055 496.21699455 -218.64208984 486.78417969 C-212.06211643 475.388541 -205.53808628 463.96110643 -199.01611328 452.53222656 C-197.01064186 449.01819321 -195.00361469 445.50505031 -192.99609375 441.9921875 C-192.66624985 441.41499969 -192.33640594 440.83781189 -191.99656677 440.24313354 C-190.33274641 437.33175915 -188.66874706 434.42048712 -187.00463867 431.50927734 C-183.98338747 426.22346172 -180.96326195 420.9370188 -177.94869995 415.64738464 C-176.25820925 412.68116606 -174.56684065 409.7154488 -172.875 406.75 C-172.54244202 406.1670517 -172.20988403 405.58410339 -171.86724854 404.98348999 C-167.25211953 396.89754031 -162.58378188 388.84427229 -157.875 380.8125 C-153.1547159 372.75985815 -148.54065335 364.65523578 -144 356.5 C-138.90151124 347.34286452 -133.68692184 338.26307238 -128.38623047 329.22167969 C-123.91721265 321.5920119 -119.50638369 313.93022514 -115.125 306.25 C-114.79163635 305.66568207 -114.45827271 305.08136414 -114.11480713 304.4793396 C-112.4199651 301.5080802 -110.72592016 298.53636728 -109.03222656 295.56445312 C-106.02519137 290.28888953 -103.01122063 285.0172894 -99.99771118 279.74542236 C-98.33292064 276.83299369 -96.66837035 273.92042775 -95.00390625 271.0078125 C-94.67410263 270.43070526 -94.34429901 269.85359802 -94.00450134 269.25900269 C-91.99338547 265.73949621 -89.98342622 262.21933188 -87.97433472 258.69866943 C-80.56241499 245.71038869 -73.12630118 232.73666171 -65.64428711 219.78857422 C-61.07273082 211.87237125 -56.53044061 203.93976686 -52 196 C-46.85681083 186.98636833 -41.69231416 177.98546077 -36.5 169 C-29.15203663 156.28384048 -21.8527433 143.53997668 -14.58837891 130.77587891 C-13.62096143 129.08520311 -12.64601053 127.39877162 -11.65771484 125.72021484 C-9.65074297 122.57403635 -9.65074297 122.57403635 -9 119 C-11.87659558 119 -13.48758548 120.30604957 -15.96875 121.75390625 Z M1 119 C2.62259579 125.14121699 5.89762774 130.22221822 9.125 135.625 C10.40220864 137.78837397 11.67820254 139.95246545 12.953125 142.1171875 C13.95182617 143.81053223 13.95182617 143.81053223 14.97070312 145.53808594 C18.3248026 151.24504315 21.59774425 156.998701 24.875 162.75 C25.54755876 163.92906422 26.22016647 165.10810051 26.89282227 166.28710938 C28.25017169 168.66670908 29.60698436 171.0466137 30.96337891 173.42675781 C34.32652051 179.32801689 37.69378067 185.2269235 41.0625 191.125 C41.39393005 191.70536011 41.72536011 192.28572021 42.0668335 192.88366699 C46.85607663 201.26841262 51.66948791 209.6389612 56.5 218 C63.70212794 230.46602223 70.84829676 242.96361244 77.98388672 255.46777344 C79.98935814 258.98180679 81.99638531 262.49494969 84.00390625 266.0078125 C84.33375015 266.58500031 84.66359406 267.16218811 85.00343323 267.75686646 C86.66725359 270.66824085 88.33125294 273.57951288 89.99536133 276.49072266 C93.01661253 281.77653828 96.03673805 287.0629812 99.05130005 292.35261536 C100.74179075 295.31883394 102.43315935 298.2845512 104.125 301.25 C104.45755798 301.8329483 104.79011597 302.41589661 105.13275146 303.01651001 C109.74788047 311.10245969 114.41621812 319.15572771 119.125 327.1875 C124.45362814 336.27795581 129.6291316 345.44575529 134.75488281 354.65185547 C139.27590565 362.75317578 143.92174004 370.77512259 148.61376953 378.77832031 C153.08278735 386.4079881 157.49361631 394.06977486 161.875 401.75 C162.20836365 402.33431793 162.54172729 402.91863586 162.88519287 403.5206604 C164.5800349 406.4919198 166.27407984 409.46363272 167.96777344 412.43554688 C170.97480863 417.71111047 173.98877937 422.9827106 177.00228882 428.25457764 C178.66707936 431.16700631 180.33162965 434.07957225 181.99609375 436.9921875 C182.49079918 437.85784836 182.49079918 437.85784836 182.99549866 438.74099731 C185.00661453 442.26050379 187.01657378 445.78066812 189.02566528 449.30133057 C195.82477958 461.21576145 202.63753173 473.12188804 209.5 485 C216.70212794 497.46602223 223.84829676 509.96361244 230.98388672 522.46777344 C232.98935814 525.98180679 234.99638531 529.49494969 237.00390625 533.0078125 C237.33375015 533.58500031 237.66359406 534.16218811 238.00343323 534.75686646 C239.66725359 537.66824085 241.33125294 540.57951288 242.99536133 543.49072266 C246.01661253 548.77653828 249.03673805 554.0629812 252.05130005 559.35261536 C253.74179075 562.31883394 255.43315935 565.2845512 257.125 568.25 C257.45755798 568.8329483 257.79011597 569.41589661 258.13275146 570.01651001 C262.74788047 578.10245969 267.41621812 586.15572771 272.125 594.1875 C277.45362814 603.27795581 282.6291316 612.44575529 287.75488281 621.65185547 C292.27590565 629.75317578 296.92174004 637.77512259 301.61376953 645.77832031 C306.08278735 653.4079881 310.49361631 661.06977486 314.875 668.75 C315.20836365 669.33431793 315.54172729 669.91863586 315.88519287 670.5206604 C317.5800349 673.4919198 319.27407984 676.46363272 320.96777344 679.43554688 C323.97480863 684.71111047 326.98877937 689.9827106 330.00228882 695.25457764 C331.66707936 698.16700631 333.33162965 701.07957225 334.99609375 703.9921875 C335.32589737 704.56929474 335.65570099 705.14640198 335.99549866 705.74099731 C338.00661453 709.26050379 340.01657378 712.78066812 342.02566528 716.30133057 C348.82477958 728.21576145 355.63753173 740.12188804 362.5 752 C367.66823094 760.94558975 372.81431341 769.90354844 377.9375 778.875 C378.26894012 779.45538025 378.60038025 780.0357605 378.94186401 780.63372803 C381.63234108 785.3455141 384.32138652 790.05811682 387.01037598 794.77075195 C389.36041657 798.88921585 391.7110209 803.00735725 394.0625 807.125 C394.55978104 807.99581207 394.55978104 807.99581207 395.06710815 808.88421631 C399.85626544 817.26877531 404.6695903 825.63913843 409.5 834 C416.70212794 846.46602223 423.84829676 858.96361244 430.98388672 871.46777344 C432.98935814 874.98180679 434.99638531 878.49494969 437.00390625 882.0078125 C437.33375015 882.58500031 437.66359406 883.16218811 438.00343323 883.75686646 C439.66725359 886.66824085 441.33125294 889.57951288 442.99536133 892.49072266 C446.01661253 897.77653828 449.03673805 903.0629812 452.05130005 908.35261536 C453.74179075 911.31883394 455.43315935 914.2845512 457.125 917.25 C457.62383698 918.12442245 457.62383698 918.12442245 458.13275146 919.01651001 C462.74788047 927.10245969 467.41621812 935.15572771 472.125 943.1875 C477.45362814 952.27795581 482.6291316 961.44575529 487.75488281 970.65185547 C492.27590565 978.75317578 496.92174004 986.77512259 501.61376953 994.77832031 C506.08278735 1002.4079881 510.49361631 1010.06977486 514.875 1017.75 C515.20836365 1018.33431793 515.54172729 1018.91863586 515.88519287 1019.5206604 C517.5800349 1022.4919198 519.27407984 1025.46363272 520.96777344 1028.43554688 C523.97480863 1033.71111047 526.98877937 1038.9827106 530.00228882 1044.25457764 C531.66707936 1047.16700631 533.33162965 1050.07957225 534.99609375 1052.9921875 C535.32589737 1053.56929474 535.65570099 1054.14640198 535.99549866 1054.74099731 C538.00659419 1058.26046819 540.01653319 1061.78059685 542.02560425 1065.30122375 C549.52029719 1078.43455112 557.03934642 1091.55327157 564.60400391 1104.64648438 C570.4364713 1114.7450476 576.22554499 1124.86817421 582 1135 C582.33 1135 582.66 1135 583 1135 C583.15421036 1070.44631059 583.29731185 1005.89259937 583.38108826 941.33877563 C583.38233077 940.38380192 583.38357328 939.42882821 583.38485345 938.4449159 C583.4117878 917.69221712 583.43671969 896.93951638 583.45958797 876.18681272 C583.47081428 866.01012081 583.48248322 855.83342942 583.49438477 845.65673828 C583.4955616 844.64401949 583.49673843 843.6313007 583.49795092 842.58789346 C583.536323 809.74553087 583.60393954 776.90330738 583.68667499 744.0610291 C583.77152169 710.31949998 583.82695812 676.57804788 583.84523491 642.83641388 C583.84782841 638.07383042 583.85075915 633.31124722 583.85389519 628.54866409 C583.8548054 627.14260686 583.8548054 627.14260686 583.855734 625.70814443 C583.86638154 610.6012891 583.90815631 595.49467147 583.96148831 580.38791318 C584.01440604 565.21118964 584.0347289 550.03470243 584.0215124 534.85788982 C584.0146519 525.83392142 584.0330499 516.81081607 584.08717789 507.78700306 C584.12084547 501.76427108 584.12203195 495.74210634 584.09648632 489.7193357 C584.08285416 486.28384439 584.08364812 482.84998848 584.12394864 479.41467039 C584.15981663 475.71727918 584.14077 472.02418252 584.10743046 468.32686424 C584.13107358 467.25488012 584.1547167 466.18289599 584.17907628 465.07842749 C584.10423689 459.48182704 584.10423689 459.48182704 581.03112548 455.03666623 C578.74556948 453.49102914 576.47391258 452.2157175 574 451 C572.4699231 450.07550049 572.4699231 450.07550049 570.90893555 449.13232422 C569.53668823 448.35139404 569.53668823 448.35139404 568.13671875 447.5546875 C567.09459229 446.95841553 566.05246582 446.36214355 564.97875977 445.74780273 C563.89264404 445.12977783 562.80652832 444.51175293 561.6875 443.875 C552.64624066 438.69932267 543.65385102 433.45642909 534.75854492 428.03271484 C529.8712642 425.06718138 524.90539914 422.29316119 519.87719727 419.57397461 C514.84802011 416.82275653 509.89665213 413.93744267 504.9375 411.0625 C503.22014341 410.06886281 501.50278509 409.07522857 499.7853241 408.08177185 C498.6081502 407.40076309 497.43107746 406.71957945 496.25410461 406.03822327 C492.33233191 403.76835789 488.40583816 401.50686357 484.4765625 399.25 C472.34286005 392.27688373 460.27127873 385.21003165 448.24633789 378.05102539 C440.21221305 373.28024015 432.12358443 368.61581402 424 364 C414.73633422 358.7363927 405.53051232 353.38820207 396.375 347.9375 C383.3212229 340.16615578 370.17312695 332.56678339 357 325 C343.68735754 317.34704711 330.3911119 309.67184775 317.18212891 301.84106445 C307.49172445 296.09785551 297.75794122 290.4297524 288.0234375 284.76171875 C285.03514034 283.02047583 282.04852736 281.27638208 279.0625 279.53125 C268.78980178 273.52904347 258.50114851 267.55658751 248.1875 261.625 C239.29103111 256.50713886 230.4434719 251.31352536 221.625 246.0625 C212.4695441 240.61170534 203.26366399 235.26360629 194 230 C184.73633422 224.7363927 175.53051232 219.38820207 166.375 213.9375 C153.32125581 206.16617538 140.17409971 198.56504849 127 191 C112.68861915 182.78188321 98.42678808 174.49330656 84.24633789 166.05102539 C75.63601777 160.93808665 66.95924088 155.95295965 58.25238037 151.00732422 C49.36042088 145.95410615 40.53710551 140.79577958 31.75 135.5625 C24.3425264 131.15520505 16.93560126 126.75188703 9.4375 122.5 C8.79458008 122.13205322 8.15166016 121.76410645 7.48925781 121.38500977 C4.43370868 119.5639766 4.43370868 119.5639766 1 119 Z M-587 1143 C-583.47914644 1145.81668285 -580.50824176 1147.9929173 -576.66796875 1150.1796875 C-575.63462402 1150.77144775 -574.6012793 1151.36320801 -573.53662109 1151.97290039 C-572.43141113 1152.60059326 -571.32620117 1153.22828613 -570.1875 1153.875 C-568.42727278 1154.88134406 -566.66797257 1155.88929624 -564.90869141 1156.89729309 C-563.70714465 1157.58559075 -562.50531943 1158.27340253 -561.30322266 1158.96073914 C-555.4743255 1162.29466324 -549.67213081 1165.67366708 -543.875 1169.0625 C-542.89281494 1169.63605225 -541.91062988 1170.20960449 -540.89868164 1170.80053711 C-536.94557455 1173.10924502 -532.99332238 1175.41941454 -529.04101562 1177.72949219 C-517.71147109 1184.35021812 -506.37023397 1190.94935227 -495 1197.5 C-481.64990822 1205.19128838 -468.34266958 1212.9548291 -455.04101562 1220.72949219 C-452.06934495 1222.46606836 -449.09730626 1224.20201192 -446.125 1225.9375 C-445.13781982 1226.51395264 -444.15063965 1227.09040527 -443.13354492 1227.68432617 C-435.83388651 1231.94201655 -428.51299394 1236.16196052 -421.1875 1240.375 C-412.29103111 1245.49286114 -403.4434719 1250.68647464 -394.625 1255.9375 C-384.8895012 1261.73362916 -375.09110108 1267.40327459 -365.24029541 1272.99972534 C-355.47225461 1278.55200512 -345.79618844 1284.24720782 -336.14453125 1290 C-328.14573462 1294.75654341 -320.09117268 1299.40340593 -312 1304 C-302.77613186 1309.24007821 -293.61308941 1314.5683573 -284.5 1320 C-275.3224219 1325.46894535 -266.09750217 1330.84149347 -256.8125 1336.125 C-245.1382599 1342.76846103 -233.51837049 1349.50001247 -221.92675781 1356.28662109 C-216.99491931 1359.17381184 -212.0603982 1362.05639926 -207.125 1364.9375 C-206.13765869 1365.5140332 -205.15031738 1366.09056641 -204.13305664 1366.68457031 C-196.83359787 1370.94224279 -189.51283646 1375.16205109 -182.1875 1379.375 C-173.29102939 1384.49286212 -164.44353286 1389.68657508 -155.625 1394.9375 C-145.23961775 1401.11909609 -134.78238963 1407.15853218 -124.27880859 1413.13598633 C-113.78334836 1419.11024791 -103.34852473 1425.18492884 -92.92675781 1431.28662109 C-87.99491931 1434.17381184 -83.0603982 1437.05639926 -78.125 1439.9375 C-77.13765869 1440.5140332 -76.15031738 1441.09056641 -75.13305664 1441.68457031 C-67.83359763 1445.94224293 -60.51281816 1450.16201888 -53.1875 1454.375 C-42.70494198 1460.40586501 -32.28578484 1466.53788516 -21.89331055 1472.72216797 C-19.82057914 1473.95552101 -17.74517185 1475.18439363 -15.66650391 1476.40771484 C-14.05734909 1477.36861099 -12.46103028 1478.3521968 -10.89208984 1479.37744141 C-8.08555174 1481.17150881 -6.48532499 1482.04084398 -3.11352539 1481.75708008 C0.01158209 1480.99718372 2.17656007 1480.01667425 4.921875 1478.3671875 C5.85128906 1477.81611328 6.78070312 1477.26503906 7.73828125 1476.69726562 C8.73214844 1476.09591797 9.72601562 1475.49457031 10.75 1474.875 C12.91098128 1473.59034303 15.07245664 1472.30651686 17.234375 1471.0234375 C18.35005859 1470.35795898 19.46574219 1469.69248047 20.61523438 1469.00683594 C26.04712943 1465.78625188 31.5241281 1462.64502108 37 1459.5 C48.36836425 1452.95265489 59.70564827 1446.35319434 71.03222656 1439.73388672 C77.02108311 1436.23496773 83.01331349 1432.74182936 89.00488281 1429.24755859 C93.980906 1426.34528296 98.95616135 1423.4417092 103.9296875 1420.53515625 C114.20532557 1414.53222941 124.49638563 1408.55812212 134.8125 1402.625 C143.74870174 1397.48337652 152.63905613 1392.27020538 161.5 1387 C175.66438366 1378.57702466 189.93880244 1370.35174302 204.22949219 1362.14550781 C217.46279521 1354.54305721 230.6400289 1346.85818082 243.75366211 1339.05102539 C252.36800663 1333.9356969 261.04917603 1328.9489099 269.75970459 1324.00027466 C278.39550022 1319.09157757 286.96692836 1314.08606831 295.5 1309 C304.61303101 1303.5682516 313.77621603 1298.24022648 323 1293 C332.26374836 1287.73654315 341.4694923 1282.38819932 350.625 1276.9375 C364.74542367 1268.53114588 378.97893783 1260.32869581 393.22949219 1252.14550781 C406.46279521 1244.54305721 419.6400289 1236.85818082 432.75366211 1229.05102539 C441.36800663 1223.9356969 450.04917603 1218.9489099 458.75970459 1214.00027466 C467.39550213 1209.09157649 475.96686936 1204.08597191 484.5 1199 C493.6775781 1193.53105465 502.90249783 1188.15850653 512.1875 1182.875 C522.85296436 1176.80560309 533.47761062 1170.67106405 544.06640625 1164.46875 C548.25331553 1162.01650761 552.44986811 1159.58171714 556.65234375 1157.15625 C557.74579102 1156.52348145 558.83923828 1155.89071289 559.96582031 1155.23876953 C562.05837198 1154.02821031 564.15267805 1152.82067685 566.24902344 1151.61669922 C567.19165039 1151.07029785 568.13427734 1150.52389648 569.10546875 1149.9609375 C569.93199951 1149.48446777 570.75853027 1149.00799805 571.61010742 1148.51708984 C574.20541967 1146.86960079 576.59955976 1144.92035219 579 1143 C194.22 1143 -190.56 1143 -587 1143 Z " fill="#75B900" transform="translate(1004,201)"/>
</svg>
